<svg width="95" height="24" viewBox="0 0 95 24" fill="none" xmlns="http://www.w3.org/2000/svg">
<path fill-rule="evenodd" clip-rule="evenodd" d="M12.8378 0V12C5.74724 12 0 6.62784 0 0H12.8378ZM25.6757 12V24C18.5851 24 12.8378 18.6278 12.8378 12H25.6757ZM25.6757 12V0H12.8378C12.8378 6.62784 18.5851 12 25.6757 12ZM12.8378 12H0C0 18.6278 5.74724 24 12.8378 24V12Z" fill="#FF6A3A"/>
<path fill-rule="evenodd" clip-rule="evenodd" d="M39.8915 8.51979L36.2587 9.11617C34.721 9.38123 33.9521 9.96815 33.9521 10.8769C33.9521 11.9182 34.7114 12.4389 36.2298 12.4389C37.4023 12.4389 38.3057 12.136 38.94 11.5301C39.5744 10.9243 39.8915 10.1196 39.8915 9.11617V8.51979ZM35.3072 15.5628C33.6157 15.5628 32.3087 15.1463 31.3861 14.3132C30.4634 13.4802 30.0021 12.3726 30.0021 10.9905C30.0021 9.68416 30.4731 8.64285 31.4149 7.8666C32.376 7.09036 33.856 6.55077 35.855 6.24784L39.8915 5.65146V5.50946C39.8915 4.05163 38.9881 3.32272 37.1813 3.32272C35.4898 3.32272 34.5576 3.92857 34.3846 5.14027H30.3481C30.4827 3.68244 31.0977 2.46127 32.1934 1.47676C33.289 0.492254 34.942 0 37.1525 0C39.3437 0 40.9967 0.482788 42.1116 1.44836C43.2264 2.41394 43.7838 3.77711 43.7838 5.53786V12.5525C43.7838 13.6695 43.928 14.5594 44.2163 15.222H40.2663C40.2471 15.222 40.2279 15.1558 40.2087 15.0232L40.1222 14.4268C40.1029 14.1428 40.0933 13.8589 40.0933 13.5749C39.1515 14.9002 37.5561 15.5628 35.3072 15.5628ZM71.8304 15.5628C74.1946 15.5628 76.1071 14.815 77.5679 13.3193C79.0287 11.8046 79.7591 9.95868 79.7591 7.7814C79.7591 5.60413 79.0287 3.76764 77.5679 2.27194C76.1071 0.757314 74.1946 0 71.8304 0C69.4661 0 67.5536 0.757314 66.0928 2.27194C64.632 3.76764 63.9016 5.60413 63.9016 7.7814C63.9016 9.95868 64.632 11.8046 66.0928 13.3193C67.5536 14.815 69.4661 15.5628 71.8304 15.5628ZM67.9957 7.7814C67.9957 6.47504 68.3513 5.4432 69.0625 4.68588C69.7929 3.92857 70.7155 3.54991 71.8304 3.54991C72.9452 3.54991 73.8582 3.92857 74.5694 4.68588C75.2998 5.4432 75.665 6.47504 75.665 7.7814C75.665 9.08777 75.2998 10.1196 74.5694 10.8769C73.8582 11.6342 72.9452 12.0129 71.8304 12.0129C70.7155 12.0129 69.7929 11.6342 69.0625 10.8769C68.3513 10.1196 67.9957 9.08777 67.9957 7.7814ZM94.827 0.340793H89.8967L86.8982 4.60069L83.8997 0.340793H78.9694L84.5917 7.66781L78.7964 15.222H83.7267L86.8982 10.7065L90.0697 15.222H95L89.2048 7.66781L94.827 0.340793ZM64.4325 0.227201V4.00431C64.1441 3.94751 63.875 3.91911 63.6252 3.91911C62.4142 3.91911 61.5012 4.2315 60.8861 4.85628C60.2903 5.48107 59.9923 6.46558 59.9923 7.80981V15.222H55.8982V0.340796H59.6752V2.27195C60.5401 0.889849 61.9625 0.1988 63.9423 0.1988L64.4325 0.227201ZM54.8301 4.00431V0.227201L54.3399 0.1988C52.3601 0.1988 50.9378 0.889849 50.0728 2.27195V0.340796H46.2958V15.222H50.3899V7.80981C50.3899 6.46558 50.6879 5.48107 51.2837 4.85628C51.8988 4.2315 52.8118 3.91911 54.0228 3.91911C54.2727 3.91911 54.5418 3.94751 54.8301 4.00431ZM43.166 23.647C43.5451 23.8823 43.9857 24 44.4879 24C44.8004 24 45.0694 23.9634 45.2948 23.8902C45.5202 23.8117 45.7149 23.6993 45.8789 23.5528C46.048 23.4012 46.1966 23.2181 46.3246 23.0037L46.3784 23.9059H46.9702V20.9718H44.7568V21.4896H46.3093C46.2683 22.0806 46.1018 22.5487 45.8097 22.8938C45.5177 23.239 45.0847 23.4116 44.5109 23.4116C44.142 23.4116 43.8141 23.3227 43.5272 23.1449C43.2454 22.9671 43.0251 22.7108 42.8663 22.3761C42.7074 22.0361 42.628 21.6334 42.628 21.1679C42.628 20.7024 42.7074 20.3023 42.8663 19.9676C43.0251 19.6329 43.2505 19.3766 43.5426 19.1988C43.8397 19.0157 44.1856 18.9242 44.5801 18.9242C45.0053 18.9242 45.3512 19.021 45.6176 19.2145C45.884 19.408 46.0531 19.6695 46.1248 19.999H46.8703C46.7576 19.4708 46.4988 19.0602 46.0941 18.7673C45.6893 18.4692 45.1847 18.3201 44.5801 18.3201C44.0472 18.3201 43.5835 18.4404 43.189 18.681C42.7996 18.9216 42.4974 19.2563 42.2822 19.6852C42.0721 20.1141 41.9671 20.6083 41.9671 21.1679C41.9671 21.7328 42.0721 22.227 42.2822 22.6506C42.4922 23.0743 42.7868 23.4064 43.166 23.647ZM81.2341 24C80.7268 24 80.2862 23.8823 79.9122 23.647C79.5433 23.4064 79.2564 23.0743 79.0514 22.6506C78.8516 22.2218 78.7517 21.7249 78.7517 21.1601C78.7517 20.5952 78.8516 20.101 79.0514 19.6773C79.2564 19.2485 79.5433 18.9164 79.9122 18.681C80.2862 18.4404 80.7268 18.3201 81.2341 18.3201C81.8438 18.3201 82.3382 18.4692 82.7173 18.7673C83.0965 19.0654 83.3398 19.4864 83.4474 20.0304H82.7481C82.661 19.6904 82.4919 19.4185 82.2408 19.2145C81.9949 19.0053 81.6593 18.9007 81.2341 18.9007C80.8652 18.9007 80.5424 18.9922 80.2657 19.1753C79.9942 19.3531 79.7841 19.612 79.6355 19.9519C79.4869 20.2866 79.4126 20.6894 79.4126 21.1601C79.4126 21.6308 79.4869 22.0361 79.6355 22.3761C79.7841 22.7108 79.9942 22.9697 80.2657 23.1527C80.5424 23.3305 80.8652 23.4195 81.2341 23.4195C81.6593 23.4195 81.9949 23.3201 82.2408 23.1213C82.4919 22.9174 82.661 22.648 82.7481 22.3133H83.4474C83.3398 22.8415 83.0965 23.2547 82.7173 23.5528C82.3382 23.8509 81.8438 24 81.2341 24ZM92.5678 23.9059V21.8191L90.8156 18.4143H91.5457L92.8906 21.1914L94.2355 18.4143H94.958L93.2134 21.8191V23.9059H92.5678ZM66.5527 18.4143V23.9059H67.1983V19.4969L70.0649 23.9059H70.7105V18.4143H70.0649V22.8232L67.1983 18.4143H66.5527ZM55.1068 23.9059V18.4143H58.4345V18.9556H55.7523V20.8698H58.2039V21.4033H55.7523V23.3645H58.4345V23.9059H55.1068ZM29.955 23.9059L31.9378 18.4143H32.6218L34.5969 23.9059H33.9052L33.4123 22.4937H31.1288L30.6313 23.9059H29.955ZM32.2759 19.238L33.2261 21.9603H31.3168L32.2759 19.238Z" fill="#111111"/>
</svg>
